<?xml version="1.0" encoding="utf-8"?>
<!-- Generator: Adobe Illustrator 24.2.0, SVG Export Plug-In . SVG Version: 6.00 Build 0)  -->
<svg version="1.1" id="Layer_1" xmlns="http://www.w3.org/2000/svg" xmlns:xlink="http://www.w3.org/1999/xlink" x="0px" y="0px"
	 viewBox="0 0 174.77 271.6" style="enable-background:new 0 0 174.77 271.6;" xml:space="preserve">
<style type="text/css">
	.st0{display:none;}
	.st1{display:inline;}
	.st2{display:none;opacity:0.5;}
	.st3{display:inline;fill:#F4FF61;}
	.st4{display:inline;opacity:0.7;}
</style>
<g>
	<g class="st0">
		<path class="st1" d="M33.76,179.49c2.35,0,4.53,0.41,6.56,1.24c2.03,0.83,3.79,1.96,5.28,3.4c1.49,1.44,2.67,3.14,3.52,5.1
			c0.85,1.96,1.28,4.07,1.28,6.34c0,2.51-0.51,4.79-1.54,6.86s-2.39,3.85-4.1,5.34c-1.12,0.96-2.37,1.77-3.76,2.42
			c-1.39,0.65-2.84,1.26-4.36,1.82c-0.72,0.29-1.42,0.6-2.1,0.92c-0.68,0.32-1.3,0.69-1.86,1.12v0.16c0.16-0.03,0.38-0.05,0.66-0.06
			c0.28-0.01,0.53-0.02,0.74-0.02c1.2,0,2.32,0.15,3.36,0.46c1.04,0.31,2.05,0.65,3.04,1.04c0.99,0.39,1.97,0.73,2.96,1.04
			c0.99,0.31,2.03,0.46,3.12,0.46c1.25,0,2.2-0.27,2.84-0.8c0.64-0.53,1.16-1.45,1.56-2.76h1c0.05,0.24,0.09,0.51,0.12,0.8
			c0.03,0.29,0.04,0.59,0.04,0.88c0,0.85-0.18,1.63-0.54,2.34c-0.36,0.71-0.85,1.32-1.48,1.84c-0.63,0.52-1.37,0.93-2.22,1.22
			c-0.85,0.29-1.77,0.44-2.76,0.44c-1.49,0-2.87-0.29-4.14-0.86c-1.27-0.57-2.47-1.2-3.6-1.88c-1.13-0.68-2.22-1.31-3.26-1.88
			c-1.04-0.57-2.07-0.86-3.08-0.86c-0.69,0-1.25,0.13-1.68,0.4c-0.43,0.27-0.81,0.57-1.16,0.9c-0.35,0.33-0.67,0.63-0.98,0.9
			s-0.69,0.4-1.14,0.4c-0.77,0-1.16-0.33-1.16-1c0-0.19,0.03-0.35,0.08-0.48c0.05-0.13,0.17-0.29,0.34-0.46
			c0.17-0.17,0.43-0.37,0.78-0.6c0.35-0.23,0.83-0.51,1.44-0.86l5.2-2.96c-2.24-0.08-4.32-0.55-6.24-1.42s-3.57-2.03-4.96-3.48
			c-1.39-1.45-2.47-3.15-3.26-5.08c-0.79-1.93-1.18-4.01-1.18-6.22c0-2.29,0.43-4.43,1.28-6.4c0.85-1.97,2.03-3.68,3.52-5.12
			c1.49-1.44,3.25-2.57,5.28-3.4C29.23,179.9,31.41,179.49,33.76,179.49z M33.76,209.89c1.76,0,3.34-0.33,4.74-1
			c1.4-0.67,2.6-1.62,3.6-2.86s1.77-2.73,2.3-4.48c0.53-1.75,0.8-3.71,0.8-5.9c0-2.13-0.27-4.06-0.8-5.78
			c-0.53-1.72-1.29-3.19-2.28-4.4c-0.99-1.21-2.19-2.15-3.6-2.8s-3-0.98-4.76-0.98s-3.35,0.33-4.76,0.98
			c-1.41,0.65-2.61,1.59-3.6,2.8s-1.75,2.68-2.28,4.4c-0.53,1.72-0.8,3.65-0.8,5.78c0,2.19,0.27,4.15,0.8,5.9
			c0.53,1.75,1.29,3.24,2.28,4.48s2.19,2.19,3.6,2.86C30.41,209.56,32,209.89,33.76,209.89z"/>
		<path class="st1" d="M77.6,198.29c0,2.11-0.21,3.96-0.62,5.56c-0.41,1.6-1.08,2.93-2,4s-2.11,1.87-3.58,2.42s-3.24,0.82-5.32,0.82
			c-1.97,0-3.69-0.19-5.16-0.58c-1.47-0.39-2.69-1.03-3.68-1.92s-1.72-2.06-2.2-3.5c-0.48-1.44-0.72-3.21-0.72-5.32v-10.56
			c0-1.97-0.05-3.49-0.14-4.56c-0.09-1.07-0.37-1.85-0.82-2.36c-0.32-0.35-0.75-0.58-1.3-0.7c-0.55-0.12-1.27-0.18-2.18-0.18v-1.52
			h13.64v1.52c-0.91,0-1.64,0.05-2.2,0.16c-0.56,0.11-1,0.37-1.32,0.8c-0.37,0.48-0.61,1.25-0.72,2.3s-0.16,2.57-0.16,4.54v10.88
			c0,1.36,0.14,2.57,0.42,3.62c0.28,1.05,0.74,1.95,1.38,2.68c0.64,0.73,1.47,1.29,2.5,1.66c1.03,0.37,2.29,0.56,3.78,0.56
			c2.67,0,4.67-0.74,6-2.22c1.33-1.48,2-3.66,2-6.54v-9.64c0-2.37-0.09-4.17-0.28-5.4c-0.19-1.23-0.53-2.09-1.04-2.6
			c-0.37-0.35-0.84-0.57-1.4-0.66c-0.56-0.09-1.25-0.14-2.08-0.14v-1.52H82v1.52c-0.85,0-1.55,0.07-2.1,0.2
			c-0.55,0.13-0.98,0.43-1.3,0.88c-0.4,0.56-0.67,1.43-0.8,2.62c-0.13,1.19-0.2,2.89-0.2,5.1V198.29z"/>
		<path class="st1" d="M93.56,203.13c0,1.33,0.05,2.39,0.16,3.16c0.11,0.77,0.31,1.37,0.62,1.8s0.75,0.71,1.32,0.84
			c0.57,0.13,1.33,0.21,2.26,0.24v1.52H84.96v-1.52c0.93-0.03,1.69-0.11,2.26-0.26c0.57-0.15,1.02-0.42,1.34-0.82
			c0.32-0.4,0.53-0.97,0.64-1.7s0.16-1.73,0.16-2.98v-16.24c0-1.12-0.05-2.05-0.14-2.78s-0.28-1.31-0.56-1.74
			c-0.28-0.43-0.69-0.73-1.22-0.9c-0.53-0.17-1.23-0.29-2.08-0.34v-1.52h12.16v1.52c-0.85,0.03-1.54,0.13-2.06,0.32
			c-0.52,0.19-0.92,0.5-1.2,0.94c-0.28,0.44-0.47,1.05-0.56,1.82c-0.09,0.77-0.14,1.76-0.14,2.96V203.13z"/>
		<path class="st1" d="M128.2,210.69h-25.84v-1.52c0.93-0.03,1.69-0.11,2.26-0.24s1.02-0.36,1.34-0.68
			c0.32-0.32,0.53-0.77,0.64-1.36s0.16-1.35,0.16-2.28v-18.64c0-0.93-0.05-1.69-0.14-2.26c-0.09-0.57-0.28-1.03-0.56-1.36
			c-0.28-0.33-0.69-0.56-1.22-0.68c-0.53-0.12-1.23-0.21-2.08-0.26v-1.52h12.16v1.52c-0.85,0.03-1.54,0.11-2.06,0.24
			c-0.52,0.13-0.92,0.37-1.2,0.72c-0.28,0.35-0.47,0.83-0.56,1.44c-0.09,0.61-0.14,1.43-0.14,2.44v17.24c0,1.12,0.11,2.03,0.34,2.74
			c0.23,0.71,0.61,1.25,1.16,1.64c0.55,0.39,1.27,0.65,2.18,0.8c0.91,0.15,2.05,0.22,3.44,0.22c1.52,0,2.8-0.09,3.84-0.26
			c1.04-0.17,1.91-0.48,2.62-0.92c0.71-0.44,1.27-1.05,1.68-1.84c0.41-0.79,0.77-1.81,1.06-3.06h1.52L128.2,210.69z"/>
		<path class="st1" d="M157.28,210.69h-25.84v-1.52c0.93-0.03,1.69-0.11,2.26-0.24s1.02-0.36,1.34-0.68
			c0.32-0.32,0.53-0.77,0.64-1.36s0.16-1.35,0.16-2.28v-18.64c0-0.93-0.05-1.69-0.14-2.26c-0.09-0.57-0.28-1.03-0.56-1.36
			c-0.28-0.33-0.69-0.56-1.22-0.68c-0.53-0.12-1.23-0.21-2.08-0.26v-1.52H144v1.52c-0.85,0.03-1.54,0.11-2.06,0.24
			c-0.52,0.13-0.92,0.37-1.2,0.72c-0.28,0.35-0.47,0.83-0.56,1.44c-0.09,0.61-0.14,1.43-0.14,2.44v17.24c0,1.12,0.11,2.03,0.34,2.74
			c0.23,0.71,0.61,1.25,1.16,1.64c0.55,0.39,1.27,0.65,2.18,0.8c0.91,0.15,2.05,0.22,3.44,0.22c1.52,0,2.8-0.09,3.84-0.26
			c1.04-0.17,1.91-0.48,2.62-0.92c0.71-0.44,1.27-1.05,1.68-1.84c0.41-0.79,0.77-1.81,1.06-3.06h1.52L157.28,210.69z"/>
		<path class="st1" d="M31.92,256.09c-2.27,0-4.31-0.36-6.12-1.08c-1.81-0.72-3.36-1.74-4.64-3.06c-1.28-1.32-2.26-2.93-2.94-4.82
			s-1.02-4-1.02-6.32c0-2.43,0.37-4.64,1.12-6.64c0.75-2,1.79-3.72,3.14-5.16c1.35-1.44,2.96-2.55,4.84-3.34
			c1.88-0.79,3.95-1.18,6.22-1.18c1.6,0,3.11,0.23,4.52,0.68c1.41,0.45,2.95,1.19,4.6,2.2l0.84-2.48h1.4l-0.52,9.2h-1.92
			c0-1.31-0.25-2.43-0.74-3.38c-0.49-0.95-1.14-1.73-1.94-2.34c-0.8-0.61-1.71-1.07-2.74-1.36s-2.07-0.44-3.14-0.44
			c-1.63,0-3.08,0.32-4.36,0.96c-1.28,0.64-2.36,1.56-3.24,2.76c-0.88,1.2-1.55,2.67-2.02,4.4c-0.47,1.73-0.7,3.69-0.7,5.88
			c0,4.29,0.89,7.59,2.68,9.9c1.79,2.31,4.37,3.46,7.76,3.46c1.28,0,2.43-0.15,3.44-0.46s1.87-0.72,2.58-1.24
			c0.71-0.52,1.24-1.12,1.6-1.8c0.36-0.68,0.54-1.39,0.54-2.14c0-1.55-0.31-2.59-0.94-3.14c-0.63-0.55-1.65-0.82-3.06-0.82v-1.52
			h11.36v1.52c-0.64,0-1.17,0.05-1.6,0.16c-0.43,0.11-0.77,0.3-1.02,0.58c-0.25,0.28-0.43,0.65-0.52,1.1
			c-0.09,0.45-0.14,1.03-0.14,1.72v4.48c-0.51,0-0.97,0.02-1.38,0.06s-0.85,0.13-1.3,0.28c-0.45,0.15-0.95,0.35-1.5,0.6
			c-0.55,0.25-1.19,0.59-1.94,1.02c-0.93,0.53-2.01,0.96-3.22,1.28C34.69,255.93,33.36,256.09,31.92,256.09z"/>
		<path class="st1" d="M77.68,243.29c0,2.11-0.21,3.96-0.62,5.56c-0.41,1.6-1.08,2.93-2,4s-2.11,1.87-3.58,2.42
			s-3.24,0.82-5.32,0.82c-1.97,0-3.69-0.19-5.16-0.58c-1.47-0.39-2.69-1.03-3.68-1.92s-1.72-2.06-2.2-3.5
			c-0.48-1.44-0.72-3.21-0.72-5.32v-10.56c0-1.97-0.05-3.49-0.14-4.56c-0.09-1.07-0.37-1.85-0.82-2.36c-0.32-0.35-0.75-0.58-1.3-0.7
			c-0.55-0.12-1.27-0.18-2.18-0.18v-1.52H63.6v1.52c-0.91,0-1.64,0.05-2.2,0.16c-0.56,0.11-1,0.37-1.32,0.8
			c-0.37,0.48-0.61,1.25-0.72,2.3s-0.16,2.57-0.16,4.54v10.88c0,1.36,0.14,2.57,0.42,3.62c0.28,1.05,0.74,1.95,1.38,2.68
			c0.64,0.73,1.47,1.29,2.5,1.66c1.03,0.37,2.29,0.56,3.78,0.56c2.67,0,4.67-0.74,6-2.22c1.33-1.48,2-3.66,2-6.54v-9.64
			c0-2.37-0.09-4.17-0.28-5.4c-0.19-1.23-0.53-2.09-1.04-2.6c-0.37-0.35-0.84-0.57-1.4-0.66c-0.56-0.09-1.25-0.14-2.08-0.14v-1.52
			h11.6v1.52c-0.85,0-1.55,0.07-2.1,0.2c-0.55,0.13-0.98,0.43-1.3,0.88c-0.4,0.56-0.67,1.43-0.8,2.62c-0.13,1.19-0.2,2.89-0.2,5.1
			V243.29z"/>
		<path class="st1" d="M93.64,248.13c0,1.33,0.05,2.39,0.16,3.16c0.11,0.77,0.31,1.37,0.62,1.8s0.75,0.71,1.32,0.84
			c0.57,0.13,1.33,0.21,2.26,0.24v1.52H85.04v-1.52c0.93-0.03,1.69-0.11,2.26-0.26c0.57-0.15,1.02-0.42,1.34-0.82
			c0.32-0.4,0.53-0.97,0.64-1.7s0.16-1.73,0.16-2.98v-16.24c0-1.12-0.05-2.05-0.14-2.78s-0.28-1.31-0.56-1.74
			c-0.28-0.43-0.69-0.73-1.22-0.9c-0.53-0.17-1.23-0.29-2.08-0.34v-1.52H97.6v1.52c-0.85,0.03-1.54,0.13-2.06,0.32
			c-0.52,0.19-0.92,0.5-1.2,0.94c-0.28,0.44-0.47,1.05-0.56,1.82c-0.09,0.77-0.14,1.76-0.14,2.96V248.13z"/>
		<path class="st1" d="M127.48,255.69h-25.84v-1.52c0.93-0.03,1.69-0.11,2.26-0.24s1.02-0.36,1.34-0.68
			c0.32-0.32,0.53-0.77,0.64-1.36s0.16-1.35,0.16-2.28v-18.64c0-0.93-0.05-1.69-0.14-2.26c-0.09-0.57-0.28-1.03-0.56-1.36
			c-0.28-0.33-0.69-0.56-1.22-0.68c-0.53-0.12-1.23-0.21-2.08-0.26v-1.52h12.16v1.52c-0.85,0.03-1.54,0.11-2.06,0.24
			c-0.52,0.13-0.92,0.37-1.2,0.72c-0.28,0.35-0.47,0.83-0.56,1.44c-0.09,0.61-0.14,1.43-0.14,2.44v17.24c0,1.12,0.11,2.03,0.34,2.74
			c0.23,0.71,0.61,1.25,1.16,1.64c0.55,0.39,1.27,0.65,2.18,0.8c0.91,0.15,2.05,0.22,3.44,0.22c1.52,0,2.8-0.09,3.84-0.26
			c1.04-0.17,1.91-0.48,2.62-0.92c0.71-0.44,1.27-1.05,1.68-1.84c0.41-0.79,0.77-1.81,1.06-3.06h1.52L127.48,255.69z"/>
		<path class="st1" d="M130.44,255.69v-1.52c1.01-0.03,1.83-0.1,2.46-0.22c0.63-0.12,1.11-0.35,1.46-0.68
			c0.35-0.33,0.58-0.79,0.7-1.36c0.12-0.57,0.18-1.34,0.18-2.3v-18.64c0-0.93-0.05-1.69-0.14-2.26c-0.09-0.57-0.28-1.03-0.56-1.36
			c-0.28-0.33-0.69-0.56-1.22-0.68c-0.53-0.12-1.23-0.21-2.08-0.26v-1.52h14.04c2.4,0,4.62,0.4,6.66,1.2
			c2.04,0.8,3.8,1.91,5.28,3.32c1.48,1.41,2.63,3.09,3.46,5.04c0.83,1.95,1.24,4.07,1.24,6.36c0,2.19-0.39,4.19-1.16,6.02
			c-0.77,1.83-1.86,3.39-3.26,4.7c-1.4,1.31-3.07,2.33-5.02,3.06s-4.08,1.1-6.4,1.1H130.44z M140.12,226.85
			c-0.45,0-0.68,0.23-0.68,0.68v21.64c0,3.04,1.99,4.56,5.96,4.56c3.65,0,6.45-1.09,8.4-3.26s2.92-5.37,2.92-9.58
			c0-2.21-0.27-4.19-0.8-5.92c-0.53-1.73-1.3-3.2-2.3-4.4s-2.21-2.12-3.62-2.76c-1.41-0.64-3.01-0.96-4.8-0.96H140.12z"/>
	</g>
	<g>
		<path d="M33.64,179.45c2.35,0,4.53,0.41,6.56,1.24c2.03,0.83,3.79,1.96,5.28,3.4c1.49,1.44,2.67,3.14,3.52,5.1
			s1.28,4.07,1.28,6.34c0,2.51-0.51,4.79-1.54,6.86c-1.03,2.07-2.39,3.85-4.1,5.34c-1.12,0.96-2.37,1.77-3.76,2.42
			c-1.39,0.65-2.84,1.26-4.36,1.82c-0.72,0.29-1.42,0.6-2.1,0.92c-0.68,0.32-1.3,0.69-1.86,1.12v0.16c0.16-0.03,0.38-0.05,0.66-0.06
			c0.28-0.01,0.53-0.02,0.74-0.02c1.2,0,2.32,0.15,3.36,0.46c1.04,0.31,2.05,0.65,3.04,1.04c0.99,0.39,1.97,0.73,2.96,1.04
			c0.99,0.31,2.03,0.46,3.12,0.46c1.25,0,2.2-0.27,2.84-0.8s1.16-1.45,1.56-2.76h1c0.05,0.24,0.09,0.51,0.12,0.8
			c0.03,0.29,0.04,0.59,0.04,0.88c0,0.85-0.18,1.63-0.54,2.34c-0.36,0.71-0.85,1.32-1.48,1.84c-0.63,0.52-1.37,0.93-2.22,1.22
			c-0.85,0.29-1.77,0.44-2.76,0.44c-1.49,0-2.87-0.29-4.14-0.86c-1.27-0.57-2.47-1.2-3.6-1.88c-1.13-0.68-2.22-1.31-3.26-1.88
			c-1.04-0.57-2.07-0.86-3.08-0.86c-0.69,0-1.25,0.13-1.68,0.4c-0.43,0.27-0.81,0.57-1.16,0.9c-0.35,0.33-0.67,0.63-0.98,0.9
			c-0.31,0.27-0.69,0.4-1.14,0.4c-0.77,0-1.16-0.33-1.16-1c0-0.19,0.03-0.35,0.08-0.48c0.05-0.13,0.17-0.29,0.34-0.46
			c0.17-0.17,0.43-0.37,0.78-0.6c0.35-0.23,0.83-0.51,1.44-0.86l5.2-2.96c-2.24-0.08-4.32-0.55-6.24-1.42
			c-1.92-0.87-3.57-2.03-4.96-3.48c-1.39-1.45-2.47-3.15-3.26-5.08c-0.79-1.93-1.18-4.01-1.18-6.22c0-2.29,0.43-4.43,1.28-6.4
			c0.85-1.97,2.03-3.68,3.52-5.12c1.49-1.44,3.25-2.57,5.28-3.4C29.1,179.87,31.29,179.45,33.64,179.45z M33.64,209.85
			c1.76,0,3.34-0.33,4.74-1c1.4-0.67,2.6-1.62,3.6-2.86s1.77-2.73,2.3-4.48c0.53-1.75,0.8-3.71,0.8-5.9c0-2.13-0.27-4.06-0.8-5.78
			c-0.53-1.72-1.29-3.19-2.28-4.4c-0.99-1.21-2.19-2.15-3.6-2.8c-1.41-0.65-3-0.98-4.76-0.98c-1.76,0-3.35,0.33-4.76,0.98
			c-1.41,0.65-2.61,1.59-3.6,2.8c-0.99,1.21-1.75,2.68-2.28,4.4c-0.53,1.72-0.8,3.65-0.8,5.78c0,2.19,0.27,4.15,0.8,5.9
			c0.53,1.75,1.29,3.24,2.28,4.48c0.99,1.24,2.19,2.19,3.6,2.86C30.29,209.52,31.88,209.85,33.64,209.85z"/>
		<path d="M77.84,198.25c0,2.11-0.21,3.96-0.62,5.56c-0.41,1.6-1.08,2.93-2,4c-0.92,1.07-2.11,1.87-3.58,2.42
			c-1.47,0.55-3.24,0.82-5.32,0.82c-1.97,0-3.69-0.19-5.16-0.58c-1.47-0.39-2.69-1.03-3.68-1.92c-0.99-0.89-1.72-2.06-2.2-3.5
			c-0.48-1.44-0.72-3.21-0.72-5.32v-10.56c0-1.97-0.05-3.49-0.14-4.56c-0.09-1.07-0.37-1.85-0.82-2.36c-0.32-0.35-0.75-0.58-1.3-0.7
			c-0.55-0.12-1.27-0.18-2.18-0.18v-1.52h13.64v1.52c-0.91,0-1.64,0.05-2.2,0.16c-0.56,0.11-1,0.37-1.32,0.8
			c-0.37,0.48-0.61,1.25-0.72,2.3c-0.11,1.05-0.16,2.57-0.16,4.54v10.88c0,1.36,0.14,2.57,0.42,3.62c0.28,1.05,0.74,1.95,1.38,2.68
			c0.64,0.73,1.47,1.29,2.5,1.66c1.03,0.37,2.29,0.56,3.78,0.56c2.67,0,4.67-0.74,6-2.22c1.33-1.48,2-3.66,2-6.54v-9.64
			c0-2.37-0.09-4.17-0.28-5.4c-0.19-1.23-0.53-2.09-1.04-2.6c-0.37-0.35-0.84-0.57-1.4-0.66c-0.56-0.09-1.25-0.14-2.08-0.14v-1.52
			h11.6v1.52c-0.85,0-1.55,0.07-2.1,0.2c-0.55,0.13-0.98,0.43-1.3,0.88c-0.4,0.56-0.67,1.43-0.8,2.62c-0.13,1.19-0.2,2.89-0.2,5.1
			V198.25z"/>
		<path d="M93.79,203.09c0,1.33,0.05,2.39,0.16,3.16c0.11,0.77,0.31,1.37,0.62,1.8c0.31,0.43,0.75,0.71,1.32,0.84
			c0.57,0.13,1.33,0.21,2.26,0.24v1.52H85.19v-1.52c0.93-0.03,1.69-0.11,2.26-0.26c0.57-0.15,1.02-0.42,1.34-0.82
			c0.32-0.4,0.53-0.97,0.64-1.7c0.11-0.73,0.16-1.73,0.16-2.98v-16.24c0-1.12-0.05-2.05-0.14-2.78c-0.09-0.73-0.28-1.31-0.56-1.74
			c-0.28-0.43-0.69-0.73-1.22-0.9c-0.53-0.17-1.23-0.29-2.08-0.34v-1.52h12.16v1.52c-0.85,0.03-1.54,0.13-2.06,0.32
			s-0.92,0.5-1.2,0.94c-0.28,0.44-0.47,1.05-0.56,1.82c-0.09,0.77-0.14,1.76-0.14,2.96V203.09z"/>
		<path d="M127.63,210.65h-25.84v-1.52c0.93-0.03,1.69-0.11,2.26-0.24c0.57-0.13,1.02-0.36,1.34-0.68c0.32-0.32,0.53-0.77,0.64-1.36
			c0.11-0.59,0.16-1.35,0.16-2.28v-18.64c0-0.93-0.05-1.69-0.14-2.26c-0.09-0.57-0.28-1.03-0.56-1.36
			c-0.28-0.33-0.69-0.56-1.22-0.68c-0.53-0.12-1.23-0.21-2.08-0.26v-1.52h12.16v1.52c-0.85,0.03-1.54,0.11-2.06,0.24
			c-0.52,0.13-0.92,0.37-1.2,0.72c-0.28,0.35-0.47,0.83-0.56,1.44c-0.09,0.61-0.14,1.43-0.14,2.44v17.24c0,1.12,0.11,2.03,0.34,2.74
			c0.23,0.71,0.61,1.25,1.16,1.64c0.55,0.39,1.27,0.65,2.18,0.8c0.91,0.15,2.05,0.22,3.44,0.22c1.52,0,2.8-0.09,3.84-0.26
			c1.04-0.17,1.91-0.48,2.62-0.92c0.71-0.44,1.27-1.05,1.68-1.84c0.41-0.79,0.77-1.81,1.06-3.06h1.52L127.63,210.65z"/>
		<path d="M156.71,210.65h-25.84v-1.52c0.93-0.03,1.69-0.11,2.26-0.24c0.57-0.13,1.02-0.36,1.34-0.68c0.32-0.32,0.53-0.77,0.64-1.36
			c0.11-0.59,0.16-1.35,0.16-2.28v-18.64c0-0.93-0.05-1.69-0.14-2.26c-0.09-0.57-0.28-1.03-0.56-1.36
			c-0.28-0.33-0.69-0.56-1.22-0.68c-0.53-0.12-1.23-0.21-2.08-0.26v-1.52h12.16v1.52c-0.85,0.03-1.54,0.11-2.06,0.24
			c-0.52,0.13-0.92,0.37-1.2,0.72c-0.28,0.35-0.47,0.83-0.56,1.44c-0.09,0.61-0.14,1.43-0.14,2.44v17.24c0,1.12,0.11,2.03,0.34,2.74
			c0.23,0.71,0.61,1.25,1.16,1.64c0.55,0.39,1.27,0.65,2.18,0.8c0.91,0.15,2.05,0.22,3.44,0.22c1.52,0,2.8-0.09,3.84-0.26
			c1.04-0.17,1.91-0.48,2.62-0.92c0.71-0.44,1.27-1.05,1.68-1.84c0.41-0.79,0.77-1.81,1.06-3.06h1.52L156.71,210.65z"/>
		<path d="M17,246.25h1.48c0.19,1.2,0.54,2.28,1.06,3.24s1.17,1.77,1.96,2.44s1.69,1.18,2.72,1.54c1.03,0.36,2.14,0.54,3.34,0.54
			c1.97,0,3.53-0.47,4.68-1.4c1.15-0.93,1.72-2.2,1.72-3.8c0-0.67-0.11-1.28-0.34-1.84c-0.23-0.56-0.61-1.1-1.14-1.62
			c-0.53-0.52-1.25-1.03-2.14-1.54c-0.89-0.51-2.02-1.05-3.38-1.64c-1.65-0.72-3.04-1.41-4.16-2.08c-1.12-0.67-2.01-1.36-2.68-2.08
			c-0.67-0.72-1.14-1.49-1.42-2.3c-0.28-0.81-0.42-1.74-0.42-2.78c0-1.23,0.22-2.36,0.66-3.4c0.44-1.04,1.06-1.94,1.86-2.7
			c0.8-0.76,1.75-1.35,2.84-1.76c1.09-0.41,2.29-0.62,3.6-0.62c1.17,0,2.27,0.19,3.28,0.56c1.01,0.37,2.04,0.97,3.08,1.8l1.04-1.8
			h0.92l0.44,7.96h-1.48c-0.64-2.19-1.57-3.81-2.78-4.88c-1.21-1.07-2.67-1.6-4.38-1.6c-1.63,0-2.92,0.4-3.88,1.2
			s-1.44,1.88-1.44,3.24c0,0.64,0.11,1.22,0.32,1.74c0.21,0.52,0.56,1.01,1.04,1.48c0.48,0.47,1.11,0.93,1.88,1.4
			c0.77,0.47,1.73,0.95,2.88,1.46c1.97,0.88,3.61,1.7,4.92,2.46c1.31,0.76,2.35,1.52,3.12,2.28c0.77,0.76,1.32,1.56,1.64,2.4
			c0.32,0.84,0.48,1.78,0.48,2.82c0,1.33-0.27,2.56-0.8,3.68c-0.53,1.12-1.28,2.08-2.24,2.88s-2.11,1.42-3.44,1.86
			c-1.33,0.44-2.8,0.66-4.4,0.66c-1.52,0-2.89-0.21-4.1-0.64c-1.21-0.43-2.45-1.15-3.7-2.16l-1.12,1.96H17.6L17,246.25z"/>
		<path d="M70.71,232.49h-1.64c-0.08-1.15-0.27-2.11-0.56-2.88c-0.29-0.77-0.71-1.38-1.26-1.82c-0.55-0.44-1.23-0.75-2.06-0.94
			c-0.83-0.19-1.81-0.28-2.96-0.28c-0.99,0-1.78,0.02-2.38,0.06c-0.6,0.04-1.06,0.11-1.38,0.22c-0.32,0.11-0.53,0.23-0.62,0.38
			c-0.09,0.15-0.14,0.34-0.14,0.58v21.4c0,0.85,0.06,1.59,0.18,2.2c0.12,0.61,0.36,1.11,0.72,1.5c0.36,0.39,0.88,0.68,1.56,0.88
			c0.68,0.2,1.58,0.31,2.7,0.34v1.52H47.75v-1.52c1.12-0.03,2.03-0.14,2.72-0.34c0.69-0.2,1.22-0.49,1.58-0.88
			c0.36-0.39,0.6-0.89,0.72-1.5c0.12-0.61,0.18-1.35,0.18-2.2v-21.4c0-0.24-0.05-0.43-0.14-0.58c-0.09-0.15-0.28-0.27-0.56-0.38
			s-0.67-0.18-1.18-0.22c-0.51-0.04-1.19-0.06-2.04-0.06c-1.04,0-2.01,0.04-2.9,0.12c-0.89,0.08-1.67,0.31-2.32,0.7
			c-0.65,0.39-1.18,0.98-1.58,1.78c-0.4,0.8-0.61,1.91-0.64,3.32h-1.48v-7.64h30.2L70.71,232.49z"/>
		<path d="M87.27,244.49H76.59c-0.45,1.09-0.84,2.06-1.16,2.9c-0.32,0.84-0.58,1.57-0.78,2.18c-0.2,0.61-0.34,1.13-0.42,1.56
			s-0.12,0.77-0.12,1.04c0,0.75,0.24,1.26,0.72,1.54c0.48,0.28,1.28,0.42,2.4,0.42v1.52h-9.72v-1.52c0.61-0.08,1.14-0.19,1.58-0.32
			c0.44-0.13,0.83-0.32,1.16-0.56c0.33-0.24,0.63-0.55,0.88-0.94s0.5-0.86,0.74-1.42l10.4-26.04H84l9.08,22.56
			c0.61,1.49,1.15,2.69,1.6,3.58c0.45,0.89,0.89,1.57,1.32,2.02c0.43,0.45,0.89,0.75,1.38,0.88c0.49,0.13,1.09,0.2,1.78,0.2v1.56
			H86.11v-1.56c1.41,0,2.39-0.13,2.92-0.4c0.53-0.27,0.8-0.71,0.8-1.32c0-0.27-0.01-0.51-0.04-0.74c-0.03-0.23-0.07-0.47-0.14-0.74
			c-0.07-0.27-0.16-0.57-0.28-0.9c-0.12-0.33-0.27-0.73-0.46-1.18L87.27,244.49z M77.4,242.49h9.12l-4.44-11.8L77.4,242.49z"/>
		<path d="M124.51,224.85h1.12l0.36,9.2h-1.48c-0.59-2.35-1.72-4.19-3.4-5.52c-1.68-1.33-3.71-2-6.08-2c-1.63,0-3.08,0.32-4.36,0.96
			c-1.28,0.64-2.36,1.56-3.24,2.76c-0.88,1.2-1.55,2.67-2.02,4.4c-0.47,1.73-0.7,3.69-0.7,5.88c0,4.29,0.89,7.59,2.68,9.9
			c1.79,2.31,4.37,3.46,7.76,3.46c5.15,0,8.45-2.73,9.92-8.2h1.64v9.96h-1.4l-0.92-3.16c-2.8,2.37-6.19,3.56-10.16,3.56
			c-2.27,0-4.31-0.36-6.14-1.08c-1.83-0.72-3.39-1.74-4.68-3.06c-1.29-1.32-2.29-2.93-3-4.82c-0.71-1.89-1.06-4-1.06-6.32
			c0-2.43,0.37-4.64,1.12-6.64c0.75-2,1.79-3.72,3.14-5.16c1.35-1.44,2.96-2.55,4.84-3.34c1.88-0.79,3.95-1.18,6.22-1.18
			c1.6,0,3.11,0.23,4.52,0.68c1.41,0.45,2.95,1.19,4.6,2.2L124.51,224.85z"/>
		<path d="M139.43,249.29c0,1.01,0.05,1.84,0.16,2.48c0.11,0.64,0.32,1.13,0.64,1.48c0.32,0.35,0.76,0.58,1.32,0.7
			s1.31,0.18,2.24,0.18v1.52h-12.96v-1.52c0.93,0,1.69-0.06,2.26-0.18c0.57-0.12,1.02-0.35,1.34-0.68c0.32-0.33,0.53-0.8,0.64-1.4
			c0.11-0.6,0.16-1.37,0.16-2.3v-18.64c0-1.01-0.06-1.82-0.18-2.42c-0.12-0.6-0.33-1.06-0.64-1.38c-0.31-0.32-0.71-0.53-1.22-0.62
			c-0.51-0.09-1.16-0.14-1.96-0.14v-1.52h12.16v1.52c-0.8,0-1.45,0.05-1.96,0.16c-0.51,0.11-0.91,0.33-1.22,0.68
			c-0.31,0.35-0.51,0.83-0.62,1.46c-0.11,0.63-0.16,1.47-0.16,2.54v9.88l10-12.04c0.53-0.67,0.8-1.19,0.8-1.56
			c0-0.75-0.76-1.12-2.28-1.12v-1.52h9.64v1.48c-0.53,0-1,0.03-1.4,0.1c-0.4,0.07-0.79,0.21-1.18,0.42
			c-0.39,0.21-0.79,0.52-1.22,0.92c-0.43,0.4-0.92,0.92-1.48,1.56l-7.52,8.68l11.68,14.04c0.67,0.77,1.29,1.31,1.88,1.62
			c0.59,0.31,1.37,0.46,2.36,0.46v1.52h-12.28v-1.52c1.04,0,1.79-0.09,2.24-0.26c0.45-0.17,0.68-0.45,0.68-0.82
			c0-0.21-0.11-0.52-0.32-0.92c-0.21-0.4-0.56-0.89-1.04-1.48l-7.8-9.6l-2.76,3.2V249.29z"/>
	</g>
	<g>
		<path d="M87.3,19.99c34.74,0,63,28.26,63,63c0,8.45-1.67,16.51-4.7,23.88l3.81,10.55c5.66-10.2,8.89-21.93,8.89-34.42
			c0-39.21-31.79-71-71-71l0,0c-39.21,0-71,31.79-71,71s31.79,71,71,71c9.84,0,19.21-2,27.73-5.62l-7.56-5.69
			c-6.34,2.15-13.12,3.31-20.18,3.31c-34.74,0-63-28.26-63-63S52.56,19.99,87.3,19.99"/>
		<g>
			<rect x="15.3" y="163.99" width="144" height="2"/>
		</g>
		<g class="st2">
			<path class="st3" d="M53.8,59.49c48,5,56,28,67,47s26,39,41,39c12.79,0,14.6-10.49,10-18c3.26,3.27,4.35,11.81,0.2,17.18
				c-4.76,6.14-11.85,8.89-25.2,7.82c-6.83-0.55-13.76-2.92-20.45-6.56c-0.79-0.43,3.29-11.02,3.86-12.43
				c-1.25,1.36-6.57,6.31-9.38,9.12c-9.57-6.27-18.45-14.9-25.63-24.1c-0.9-1.15,3.88-13.26,8.04-17.71
				c-1.71,1.27-9.74,8.18-12.78,11.2c-0.57-0.84-1.12-1.67-1.65-2.51c-11.3-17.73-8.39-33.53-7-40c-5.79-3.69-13-6-25-8
				C54.8,60.49,54.8,60.49,53.8,59.49z"/>
			<path class="st3" d="M90.45,67.62c7.62-1.92,14.87,0.13,21.4,4.46c0.06,1.12-0.47,2.43-1.07,3.75c1.2-0.41,4.09-1.55,4.67-1.07
				c5.97,4.93,11.21,11.67,15.36,18.72c3.1,5.27,5.43,11.07,7.55,16.83c0.31,0.86,0.62,1.71,0.93,2.57
				c0.28,0.79,0.56,1.57,0.84,2.35c3.94,11.04,7.67,21.36,15.23,26.93l0,0c-9.86-3.9-21.07-16.39-32.82-36.68
				c-1.03-1.78-2.01-3.56-3.05-5.44C113.17,88.64,106.32,76.26,90.45,67.62L90.45,67.62z"/>
		</g>
		<circle cx="167.8" cy="131.16" r="5.5"/>
		<g class="st0">
			<path class="st4" d="M158.27,152.37c6.36-0.96,10.57-3.62,13.73-7.7c4.16-5.37,3.06-13.91-0.2-17.18c4.6,7.51,2.79,18-10,18
				c-15,0-30-20-41-39s-19-42-67-47c1,1,1,1,3,2c12,2,19.21,4.31,25,8c-0.92,4.27-2.49,12.6-0.22,22.87l0.68,0.01v1v2h1v3h1v2v1h1v2
				h1v2h1v2h1v2h1v1h1v2h1v-2h1v-1h1v-1h1v-1h1v-1h2v-1h1v-1h1v-1h1v-1h1v-1h1v1v1h-1v1h-1v2h-1v2h-1v2h-1v2h-1v3h-1v3h1v2h1v1h1v2
				h1v1h1v1h1v1h1v1h1v1h1v1h1v1h1v1h1v1h1v1h1v1h1v1h1v1h2v1h1v1h1v1h1v1h2v1h1v1h2v-1h1v-1h1v-1h1v-1h2v-1h1v-1h1v-1h1v2h-1v3h-1
				v3h-1v3h2v1h2v1h2v1h3v1h3v1h5v1H158.27z"/>
			<path class="st1" d="M90.45,67.62c7.62-1.92,14.87,0.13,21.4,4.46c0.06,1.12-0.47,2.43-1.07,3.75c1.2-0.41,4.09-1.55,4.67-1.07
				c5.97,4.93,11.21,11.67,15.36,18.72c3.1,5.27,5.43,11.07,7.55,16.83c0.31,0.86,0.62,1.71,0.93,2.57
				c0.28,0.79,0.56,1.57,0.84,2.35c3.94,11.04,7.67,21.36,15.23,26.93l0,0c-9.86-3.9-21.07-16.39-32.82-36.68
				c-1.03-1.78-2.01-3.56-3.05-5.44C113.17,88.64,106.32,76.26,90.45,67.62L90.45,67.62z"/>
		</g>
		<g class="st0">
			<path class="st1" d="M158.27,152.37c6.36-0.96,10.57-3.62,13.73-7.7c4.16-5.37,3.06-13.91-0.2-17.18c4.6,7.51,2.79,18-10,18
				c-15,0-30-20-41-39s-19-42-67-47c1,1,1,1,3,2c12,2,19.21,4.31,25,8c-0.82,3.85-2.19,10.99-0.78,19.88l0.25,6h2v6h2v4h2v4h2v2h2
				v-2h4v-2h2v-2h2v-2h2v2v2h-2v2h-2v4h-2v6h2v4h2v2h2v2h2v2h2v2h2v2h2v2h2v2h4v2h2v2h6v-2h2v-2h2v-2h2v4h-2v8h4v2h6v2h8v2h8
				L158.27,152.37z"/>
			<path class="st1" d="M90.45,67.62c7.62-1.92,14.87,0.13,21.4,4.46c0.06,1.12-0.47,2.43-1.07,3.75c1.2-0.41,4.09-1.55,4.67-1.07
				c5.97,4.93,11.21,11.67,15.36,18.72c3.1,5.27,5.43,11.07,7.55,16.83c0.31,0.86,0.62,1.71,0.93,2.57
				c0.28,0.79,0.56,1.57,0.84,2.35c3.94,11.04,7.67,21.36,15.23,26.93l0,0c-9.86-3.9-21.07-16.39-32.82-36.68
				c-1.03-1.78-2.01-3.56-3.05-5.44C113.17,88.64,106.32,76.26,90.45,67.62L90.45,67.62z"/>
		</g>
		<g>
			<path d="M158.27,152.37c6.36-0.96,10.57-3.62,13.73-7.7c4.16-5.37,3.06-13.91-0.2-17.18c4.6,7.51,2.79,18-10,18
				c-15,0-30-20-41-39s-19-42-67-47c1,1,1,1,3,2c12,2,19.21,4.31,25,8c-0.82,3.85-2.19,10.99-0.78,19.88l0.25,10h4v8h4v4h4v-4h4v-4
				h4v4h-4v8h-4v4h4v4h4v4h4v4h4v4h4v4h4v4h4v-4h4v-4h4v4h-4v4v4h8v4h4c0,0,1.71,0.06,3.42,0.16
				C146.69,153.45,158.27,152.37,158.27,152.37z"/>
			<path d="M90.45,67.62c7.62-1.92,14.87,0.13,21.4,4.46c0.06,1.12-0.47,2.43-1.07,3.75c1.2-0.41,4.09-1.55,4.67-1.07
				c5.97,4.93,11.21,11.67,15.36,18.72c3.1,5.27,5.43,11.07,7.55,16.83c0.31,0.86,0.62,1.71,0.93,2.57
				c0.28,0.79,0.56,1.57,0.84,2.35c3.94,11.04,7.67,21.36,15.23,26.93l0,0c-9.86-3.9-21.07-16.39-32.82-36.68
				c-1.03-1.78-2.01-3.56-3.05-5.44C113.17,88.64,106.32,76.26,90.45,67.62L90.45,67.62z"/>
		</g>
	</g>
</g>
</svg>
